<?xml version="1.0" encoding="UTF-8" standalone="no"?>
<svg
   enable-background="new 0 0 64 64"
   height="64px"
   id="Layer_1"
   version="1.1"
   viewBox="0 0 64 64"
   width="64px"
   xml:space="preserve"
   sodipodi:docname="facebook.svg"
   inkscape:version="1.4.2 (ebf0e940d0, 2025-05-08)"
   xmlns:inkscape="http://www.inkscape.org/namespaces/inkscape"
   xmlns:sodipodi="http://sodipodi.sourceforge.net/DTD/sodipodi-0.dtd"
   xmlns="http://www.w3.org/2000/svg"
   xmlns:svg="http://www.w3.org/2000/svg"><defs
     id="defs1" /><sodipodi:namedview
     id="namedview1"
     pagecolor="#ffffff"
     bordercolor="#000000"
     borderopacity="0.25"
     inkscape:showpageshadow="2"
     inkscape:pageopacity="0.0"
     inkscape:pagecheckerboard="0"
     inkscape:deskcolor="#d1d1d1"
     inkscape:zoom="15.5625"
     inkscape:cx="31.967871"
     inkscape:cy="32"
     inkscape:window-width="2259"
     inkscape:window-height="1199"
     inkscape:window-x="0"
     inkscape:window-y="0"
     inkscape:window-maximized="1"
     inkscape:current-layer="Layer_1" /><path
     d="M32,7.174C18.311,7.174,7.174,18.311,7.174,32c0,13.689,11.137,24.826,24.826,24.826c13.689,0,24.826-11.137,24.826-24.826  C56.826,18.311,45.689,7.174,32,7.174z M38.174,32.874h-4.039c0,6.453,0,14.398,0,14.398h-5.985c0,0,0-7.868,0-14.398h-2.845v-5.088  h2.845v-3.291c0-2.357,1.12-6.04,6.04-6.04l4.433,0.017v4.939c0,0-2.695,0-3.219,0c-0.524,0-1.268,0.262-1.268,1.386v2.99h4.56  L38.174,32.874z"
     id="path1"
     style="fill:#222222;fill-opacity:1" /></svg>
