<svg width="75" xmlns="http://www.w3.org/2000/svg" height="55.975" id="screenshot-36d9dc25-0b16-80fe-8006-f550bccc2205" viewBox="506 5399 75 55.975" xmlns:xlink="http://www.w3.org/1999/xlink" fill="none" version="1.1"><g id="shape-36d9dc25-0b16-80fe-8006-f550bccc2205"><g class="fills" id="fills-36d9dc25-0b16-80fe-8006-f550bccc2205"><path d="M506.4045715332031,5441.06103515625L506.4981384277344,5441.68896484375L506.5953674316406,5441.6669921875C508.4426574707031,5450.3056640625,516.6575927734375,5456.04541015625,525.405029296875,5454.8076171875C534.15234375,5453.56982421875,540.45263671875,5445.7783203125,539.830810546875,5436.96435546875C539.208984375,5428.15234375,531.876953125,5421.32080078125,523.042236328125,5421.32421875C522.20849609375,5421.32421875,521.408447265625,5421.4521484375,520.6119384765625,5421.5673828125C520.8701171875,5420.7001953125,521.135498046875,5419.818359375,521.561767578125,5419.0244140625C521.988037109375,5417.87451171875,522.6534423828125,5416.87548828125,523.3153076171875,5415.86962890625C523.86865234375,5414.78173828125,524.8443603515625,5414.0458984375,525.5623779296875,5413.115234375C526.313720703125,5412.20947265625,527.338134765625,5411.60693359375,528.149658203125,5410.8564453125C528.94580078125,5410.0712890625,529.9888916015625,5409.67724609375,530.819091796875,5409.1240234375C531.6865234375,5408.62744140625,532.4415283203125,5408.078125,533.2491455078125,5407.81689453125L535.264404296875,5406.986328125L537.03662109375,5406.2490234375L535.2269287109375,5398.99951171875L532.9949951171875,5399.5380859375C532.2808837890625,5399.71875,531.40966796875,5399.9267578125,530.4190673828125,5400.1787109375C529.4058837890625,5400.365234375,528.3253173828125,5400.87646484375,527.121337890625,5401.34375C525.93603515625,5401.87841796875,524.556640625,5402.234375,523.27783203125,5403.0908203125C521.99169921875,5403.90478515625,520.5074462890625,5404.58544921875,519.19873046875,5405.67724609375C517.931396484375,5406.8037109375,516.4022216796875,5407.77880859375,515.2730712890625,5409.20654296875C514.0391845703125,5410.54638671875,512.8204345703125,5411.9521484375,511.8744812011719,5413.55126953125C510.7789611816406,5415.07763671875,510.0350036621094,5416.75146484375,509.2497863769531,5418.4091796875C508.5393981933594,5420.06494140625,507.9675598144531,5421.75927734375,507.5001525878906,5423.40380859375C506.6140441894531,5426.70068359375,506.2176818847656,5429.83349609375,506.0643615722656,5432.515625C505.9372253417969,5435.19921875,506.0121154785156,5437.431640625,506.1690979003906,5439.04736328125C506.2215881347656,5439.72119140625,506.3003234863281,5440.392578125,506.4045715332031,5441.06103515625ZM547.5313720703125,5441.06103515625L547.625,5441.68896484375L547.72216796875,5441.6669921875C549.5694580078125,5450.3056640625,557.7843017578125,5456.04541015625,566.5318603515625,5454.8076171875C575.2791748046875,5453.56982421875,581.5795288085938,5445.7783203125,580.9576416015625,5436.96435546875C580.3358154296875,5428.15234375,573.00390625,5421.32080078125,564.169189453125,5421.32421875C563.3353271484375,5421.32421875,562.5352783203125,5421.4521484375,561.7388916015625,5421.5673828125C561.9969482421875,5420.7001953125,562.2623291015625,5419.818359375,562.6885986328125,5419.0244140625C563.1148681640625,5417.87451171875,563.7802734375,5416.87548828125,564.4420166015625,5415.86962890625C564.9954833984375,5414.78173828125,565.97119140625,5414.0458984375,566.6890869140625,5413.115234375C567.4405517578125,5412.20947265625,568.4649658203125,5411.60693359375,569.2764892578125,5410.8564453125C570.0726318359375,5410.0712890625,571.11572265625,5409.67724609375,571.9459228515625,5409.1240234375C572.813232421875,5408.62744140625,573.568359375,5408.078125,574.3759765625,5407.81689453125L576.3912353515625,5406.986328125C577.5167236328125,5406.5263671875,578.1597900390625,5406.25830078125,578.1597900390625,5406.25830078125L576.35009765625,5399.0068359375L574.1181640625,5399.54541015625C573.4039306640625,5399.72607421875,572.5328369140625,5399.93408203125,571.5419921875,5400.18603515625C570.52880859375,5400.37255859375,569.4482421875,5400.88525390625,568.2445068359375,5401.3525390625C567.059326171875,5401.8857421875,565.6795654296875,5402.24169921875,564.4010009765625,5403.09765625C563.1148681640625,5403.912109375,561.6304931640625,5404.5927734375,560.3218994140625,5405.6845703125C559.0545654296875,5406.81103515625,557.525390625,5407.7861328125,556.396240234375,5409.21533203125C555.162353515625,5410.5537109375,553.943603515625,5411.95947265625,552.9976806640625,5413.55859375C551.902099609375,5415.08447265625,551.158203125,5416.7587890625,550.3729248046875,5418.41650390625C549.66259765625,5420.072265625,549.0904541015625,5421.7666015625,548.6231689453125,5423.4111328125C547.737060546875,5426.7080078125,547.3409423828125,5429.8408203125,547.1875,5432.52294921875C547.0604248046875,5435.20654296875,547.135009765625,5437.43896484375,547.292236328125,5439.0546875C547.347900390625,5439.7265625,547.4278564453125,5440.39453125,547.5313720703125,5441.06103515625Z" style="fill: rgb(34, 34, 34); fill-opacity: 1;"/></g></g></svg>