<?xml version="1.0" encoding="UTF-8" standalone="no"?>
<svg
   width="1920"
   height="345"
   id="screenshot-b28d1092-3bc7-8036-8006-f30481bca546"
   viewBox="-0 0 1920 345"
   fill="none"
   version="1.1"
   sodipodi:docname="wave.svg"
   inkscape:version="1.4.2 (ebf0e940d0, 2025-05-08)"
   xmlns:inkscape="http://www.inkscape.org/namespaces/inkscape"
   xmlns:sodipodi="http://sodipodi.sourceforge.net/DTD/sodipodi-0.dtd"
   xmlns="http://www.w3.org/2000/svg"
   xmlns:svg="http://www.w3.org/2000/svg">
  <defs
     id="defs3" />
  <sodipodi:namedview
     id="namedview2"
     pagecolor="#ffffff"
     bordercolor="#000000"
     borderopacity="0.25"
     inkscape:showpageshadow="2"
     inkscape:pageopacity="0.0"
     inkscape:pagecheckerboard="0"
     inkscape:deskcolor="#d1d1d1"
     inkscape:zoom="0.54375"
     inkscape:cx="898.3908"
     inkscape:cy="79.08046"
     inkscape:window-width="2259"
     inkscape:window-height="1199"
     inkscape:window-x="0"
     inkscape:window-y="0"
     inkscape:window-maximized="1"
     inkscape:current-layer="screenshot-b28d1092-3bc7-8036-8006-f30481bca546" />
  <path
     d="m 1920,273.54883 -0.1328,11.59179 C 1841.6891,328.15877 1744.1902,344.94184 1634.5938,345 H 1920 Z"
     style="opacity:1;fill:#f4fafd;stroke-width:1.5;stroke-linecap:square;fill-opacity:1"
     id="path7" />
  <path
     d="M 1633.4492,345 C 1094.9992,344.71467 265.60465,-57.844514 0,262.64844 V 345 Z"
     style="opacity:1;fill:#f4fafd;stroke-width:1.5;stroke-linecap:square;fill-opacity:1"
     id="path6" />
  <path
     d="M 1920,167.05469 C 1494.0823,469.27673 327.70703,-128.02979 0,238.30078 v 24.34766 C 265.60465,-57.844514 1094.9992,344.71467 1633.4492,345 h 1.1446 c 109.5964,-0.0582 207.0953,-16.84123 285.2734,-59.85938 L 1920,273.54883 Z"
     style="opacity:1;fill:#e4f3fb;stroke-width:1.5;stroke-linecap:square"
     id="path5" />
  <path
     d="M 1918.7988,1.2734375 C 1558.9042,380.95114 345.17035,-152.55479 0,194 v 13 31.30078 C 327.70703,-128.02979 1494.0823,469.27673 1920,167.05469 V 1.2734375 Z"
     style="opacity:1;fill:#f9e194;stroke-width:1.5;stroke-linecap:square;fill-opacity:1"
     id="path4" />
</svg>
